<svg width="28" height="28" viewBox="0 0 28 28" fill="none" xmlns="http://www.w3.org/2000/svg">
<g clip-path="url(#clip0_117_924)" filter="url(#filter0_d_117_924)">
<path fill-rule="evenodd" clip-rule="evenodd" d="M4.83325 2.365C4.83325 1.95877 4.99462 1.56919 5.28187 1.28195C5.56911 0.994702 5.9587 0.83333 6.36492 0.83333H21.6333C21.8346 0.833001 22.034 0.872383 22.22 0.949219C22.4061 1.02606 22.5752 1.13884 22.7176 1.28111C22.8601 1.42338 22.973 1.59235 23.0501 1.77834C23.1271 1.96433 23.1667 2.16368 23.1666 2.365V17.6333C23.1668 17.8347 23.1273 18.0341 23.0504 18.2202C22.9735 18.4063 22.8606 18.5753 22.7183 18.7178C22.5759 18.8602 22.4069 18.9731 22.2209 19.0502C22.0348 19.1272 21.8354 19.1668 21.6341 19.1667H6.36492C6.16371 19.1667 5.96447 19.127 5.77858 19.05C5.5927 18.973 5.42381 18.8601 5.28157 18.7178C5.13933 18.5754 5.02653 18.4065 4.9496 18.2206C4.87268 18.0346 4.83314 17.8354 4.83325 17.6342V2.365ZM12.0899 7.82333H14.5724V9.07C14.9308 8.35333 15.8474 7.70833 17.2249 7.70833C19.8658 7.70833 20.4916 9.13583 20.4916 11.755V16.6067H17.8191V12.3517C17.8191 10.86 17.4608 10.0183 16.5508 10.0183C15.2883 10.0183 14.7633 10.9258 14.7633 12.3517V16.6067H12.0899V7.82333ZM7.50659 16.4925H10.1799V7.70833H7.50659V16.4917V16.4925ZM10.5624 4.84333C10.5675 5.07222 10.5267 5.29982 10.4426 5.51276C10.3585 5.7257 10.2327 5.91969 10.0726 6.08336C9.91251 6.24702 9.72133 6.37706 9.5103 6.46584C9.29926 6.55461 9.07262 6.60035 8.84367 6.60035C8.61472 6.60035 8.38808 6.55461 8.17704 6.46584C7.966 6.37706 7.77483 6.24702 7.61473 6.08336C7.45463 5.91969 7.32883 5.7257 7.24472 5.51276C7.16061 5.29982 7.11988 5.07222 7.12492 4.84333C7.13481 4.39404 7.32024 3.96649 7.64149 3.65224C7.96274 3.33798 8.39427 3.16201 8.84367 3.16201C9.29307 3.16201 9.7246 3.33798 10.0458 3.65224C10.3671 3.96649 10.5525 4.39404 10.5624 4.84333Z" fill="black"/>
</g>
<defs>
<filter id="filter0_d_117_924" x="0" y="0" width="28" height="28" filterUnits="userSpaceOnUse" color-interpolation-filters="sRGB">
<feFlood flood-opacity="0" result="BackgroundImageFix"/>
<feColorMatrix in="SourceAlpha" type="matrix" values="0 0 0 0 0 0 0 0 0 0 0 0 0 0 0 0 0 0 127 0" result="hardAlpha"/>
<feOffset dy="4"/>
<feGaussianBlur stdDeviation="2"/>
<feComposite in2="hardAlpha" operator="out"/>
<feColorMatrix type="matrix" values="0 0 0 0 0 0 0 0 0 0 0 0 0 0 0 0 0 0 0.25 0"/>
<feBlend mode="normal" in2="BackgroundImageFix" result="effect1_dropShadow_117_924"/>
<feBlend mode="normal" in="SourceGraphic" in2="effect1_dropShadow_117_924" result="shape"/>
</filter>
<clipPath id="clip0_117_924">
<rect width="20" height="20" fill="white" transform="translate(4)"/>
</clipPath>
</defs>
</svg>
